<?xml version="1.0" standalone="no"?>
<!DOCTYPE svg PUBLIC "-//W3C//DTD SVG 1.1//EN" "http://www.w3.org/Graphics/SVG/1.1/DTD/svg11.dtd" >
<svg xmlns="http://www.w3.org/2000/svg" xmlns:xlink="http://www.w3.org/1999/xlink" version="1.1">
<metadata></metadata>
<defs>
<font id="alimonyregular" horiz-adv-x="1000" >
<font-face units-per-em="2048" ascent="1638" descent="-410" />
<missing-glyph horiz-adv-x="400" />
<glyph unicode="&#xd;" horiz-adv-x="508" />
<glyph horiz-adv-x="0" />
<glyph horiz-adv-x="0" />
<glyph unicode=" "  horiz-adv-x="400" />
<glyph unicode="&#x09;" horiz-adv-x="400" />
<glyph unicode="&#xa0;" horiz-adv-x="400" />
<glyph unicode="!" horiz-adv-x="400" d="M100 0v200h200v-200h-200zM100 300v900h200v-900h-200z" />
<glyph unicode="&#x22;" horiz-adv-x="700" d="M100 800v400h200v-400h-200zM400 800v400h200v-400h-200z" />
<glyph unicode="#" d="M100 200v200h100v400h-100v200h100v200h200v-200h200v200h200v-200h100v-200h-100v-400h100v-200h-100v-200h-200v200h-200v-200h-200v200h-100zM400 400h200v400h-200v-400z" />
<glyph unicode="$" d="M100 350l200 100v-100q0 -83 59 -116q19 -12 41 -19v315q-300 70 -300 320q0 166 117 258q80 63 183 83v109h200v-109q103 -20 183 -83q117 -92 117 -258l-200 -100v100q0 83 -58 117q-20 11 -42 18v-315q300 -70 300 -320q0 -166 -117 -258q-80 -63 -183 -83v-109h-200 v109q-103 20 -183 83q-117 92 -117 258zM300 850q0 -64 100 -114v249q-22 -7 -41 -18q-59 -34 -59 -117zM600 215q22 7 42 19q58 33 58 116q0 64 -100 114v-249z" />
<glyph unicode="%" horiz-adv-x="900" d="M7 0l660 1200h228l-660 -1200h-228zM101 900v300h300v-300h-300zM501 0v300h300v-300h-300z" />
<glyph unicode="&#x26;" horiz-adv-x="1200" d="M100 350q0 163 76 250q-76 87 -76 250q0 350 400 350t400 -350h-200q0 150 -200 150t-200 -150t200 -150h600l-100 -200h-100v-150q0 -150 200 -150v-200q-200 0 -300 88q-100 -88 -300 -88q-400 0 -400 350zM300 350q0 -150 200 -150t200 150v150h-200q-200 0 -200 -150 z" />
<glyph unicode="'" horiz-adv-x="400" d="M100 800v400h200v-400h-200z" />
<glyph unicode="(" horiz-adv-x="600" d="M100 300v600q0 166 117 283t283 117v-200q-83 0 -141.5 -58.5t-58.5 -141.5v-600q0 -83 58.5 -141.5t141.5 -58.5v-200q-166 0 -283 117t-117 283z" />
<glyph unicode=")" horiz-adv-x="600" d="M100 -100v200q83 0 141.5 58.5t58.5 141.5v600q0 83 -58.5 141.5t-141.5 58.5v200q166 0 283 -117t117 -283v-600q0 -166 -117 -283t-283 -117z" />
<glyph unicode="*" horiz-adv-x="800" d="M90 837l109 63l-109 63l100 174l110 -63v126h200v-126l110 63l100 -174l-109 -63l109 -63l-100 -174l-110 63v-126h-200v126l-110 -63z" />
<glyph unicode="+" horiz-adv-x="800" d="M50 700h250v200h200v-200h200v-200h-200v-200h-200v200h-150z" />
<glyph unicode="," horiz-adv-x="400" d="M100 -200v400h200v-300z" />
<glyph unicode="-" horiz-adv-x="800" d="M50 700h650v-200h-550z" />
<glyph unicode="." horiz-adv-x="400" d="M100 0v200h200v-200h-200z" />
<glyph unicode="/" horiz-adv-x="900" d="M7 0l660 1200h228l-660 -1200h-228z" />
<glyph unicode="0" d="M100 400v400q0 166 117 283t283 117t283 -117t117 -283v-400q0 -166 -117 -283t-283 -117t-283 117t-117 283zM300 400q0 -83 58.5 -141.5t141.5 -58.5t141.5 58.5t58.5 141.5v400q0 83 -58.5 141.5t-141.5 58.5t-141.5 -58.5t-58.5 -141.5v-400z" />
<glyph unicode="1" horiz-adv-x="600" d="M100 1000v200h400v-1200h-200v1000h-200z" />
<glyph unicode="2" d="M100 0v200q600 470 600 600q0 83 -58.5 141.5t-141.5 58.5t-141.5 -58.5t-58.5 -141.5v-100l-200 100q0 166 117 283t283 117t283 -117t117 -283q0 -250 -500 -600h500v-200h-800z" />
<glyph unicode="3" d="M100 350h200q0 -150 200 -150t200 150t-200 150h-100l-100 200h200q200 0 200 150t-200 150t-200 -150h-200q0 350 400 350t400 -350q0 -163 -76 -250q76 -87 76 -250q0 -350 -400 -350t-400 350z" />
<glyph unicode="4" d="M100 200v1000h200v-800h300v800h200v-800h100v-200h-100v-200h-200v200h-500z" />
<glyph unicode="5" d="M100 350h200q0 -83 58.5 -116.5t141.5 -33.5t141.5 33.5t58.5 116.5v150q0 83 -58.5 116.5t-141.5 33.5t-141.5 -33.5t-58.5 -116.5h-200v700h800v-200h-600v-191q89 41 200 41q166 0 283 -92t117 -258v-150q0 -166 -117 -258t-283 -92t-283 92t-117 258z" />
<glyph unicode="6" d="M100 400v400q0 166 117 283t283 117t283 -92t117 -258h-200q0 83 -58.5 116.5t-141.5 33.5t-141.5 -58.5t-58.5 -141.5v-52q89 52 200 52q166 0 283 -117t117 -283t-117 -283t-283 -117t-283 117t-117 283zM300 400q0 -83 58.5 -141.5t141.5 -58.5t141.5 58.5t58.5 141.5 t-58.5 141.5t-141.5 58.5t-141.5 -58.5t-58.5 -141.5z" />
<glyph unicode="7" horiz-adv-x="900" d="M54 0l476 1000h-430v200h746l-571 -1200h-221z" />
<glyph unicode="8" d="M100 350q0 163 76 250q-76 87 -76 250q0 350 400 350t400 -350q0 -163 -76 -250q76 -87 76 -250q0 -350 -400 -350t-400 350zM300 350q0 -150 200 -150t200 150t-200 150t-200 -150zM300 850q0 -150 200 -150t200 150t-200 150t-200 -150z" />
<glyph unicode="9" d="M100 350h200q0 -83 58.5 -116.5t141.5 -33.5t141.5 58.5t58.5 141.5v52q-89 -52 -200 -52q-166 0 -283 117t-117 283t117 283t283 117t283 -117t117 -283v-400q0 -166 -117 -283t-283 -117t-283 92t-117 258zM300 800q0 -83 58.5 -141.5t141.5 -58.5t141.5 58.5 t58.5 141.5t-58.5 141.5t-141.5 58.5t-141.5 -58.5t-58.5 -141.5z" />
<glyph unicode=":" horiz-adv-x="400" d="M100 0v200h200v-200h-200zM100 600v200h200v-200h-200z" />
<glyph unicode=";" horiz-adv-x="400" d="M100 -200v400h200v-300zM100 600v200h200v-200h-200z" />
<glyph unicode="&#x3c;" d="M100 500v200l800 260v-210l-461 -150l461 -150v-210z" />
<glyph unicode="=" horiz-adv-x="800" d="M50 550h650v-200h-550zM50 850h650v-200h-550z" />
<glyph unicode="&#x3e;" d="M100 240v210l461 150l-461 150v210l800 -260v-200z" />
<glyph unicode="?" d="M100 1000v200h450q350 0 350 -350t-350 -350h-150v-200h-200v400h350q150 0 150 150t-150 150h-450zM200 0v200h200v-200h-200z" />
<glyph unicode="@" d="M100 400v400q0 166 117 283t283 117t283 -117t117 -283v-450h-450v450h250q0 83 -58.5 141.5t-141.5 58.5t-141.5 -58.5t-58.5 -141.5v-400q0 -83 58.5 -141.5t141.5 -58.5h450l-100 -200h-350q-166 0 -283 117t-117 283z" />
<glyph unicode="A" d="M10 0l390 1200h200l390 -1200h-210l-65 200h-315l-70 139l-110 -339h-210zM350 400h300l-150 461z" />
<glyph unicode="B" d="M100 0v1200h450q350 0 350 -350q0 -163 -76 -250q76 -87 76 -250q0 -350 -350 -350h-150l-100 200v-200h-200zM300 200h250q150 0 150 150t-150 150h-150l-100 200v-500zM300 700h250q150 0 150 150t-150 150h-250v-300z" />
<glyph unicode="C" d="M100 400v400q0 166 117 283t283 117t283 -117t117 -283l-200 -100v100q0 83 -58.5 141.5t-141.5 58.5t-141.5 -58.5t-58.5 -141.5v-400q0 -83 58.5 -141.5t141.5 -58.5t141.5 58.5t58.5 141.5v100l200 -100q0 -166 -117 -283t-283 -117t-283 117t-117 283z" />
<glyph unicode="D" d="M100 0v1200h400q166 0 283 -117t117 -283v-400q0 -166 -117 -283t-283 -117h-400zM300 200h200q83 0 141.5 58.5t58.5 141.5v400q0 83 -58.5 141.5t-141.5 58.5h-200v-800z" />
<glyph unicode="E" horiz-adv-x="900" d="M100 0v1200h700v-200h-500v-800h500v-200h-700zM300 700h500v-200h-400z" />
<glyph unicode="F" horiz-adv-x="900" d="M100 0v1200h700v-200h-500v-1000h-200zM300 700h500v-200h-400z" />
<glyph unicode="G" d="M100 400v400q0 166 117 283t283 117t283 -92t117 -258h-200q0 83 -58.5 116.5t-141.5 33.5t-141.5 -58.5t-58.5 -141.5v-400q0 -83 58.5 -141.5t141.5 -58.5t141.5 58.5t58.5 141.5v100h-150l-100 200h450v-300q0 -166 -117 -283t-283 -117t-283 117t-117 283z" />
<glyph unicode="H" d="M100 0v1200h200v-1200h-200zM300 700h400v500h200v-1200h-200v500h-300z" />
<glyph unicode="I" horiz-adv-x="400" d="M100 0v1200h200v-1200h-200z" />
<glyph unicode="J" d="M100 400l200 100v-100q0 -83 58.5 -141.5t141.5 -58.5t141.5 58.5t58.5 141.5v800h200v-800q0 -166 -117 -283t-283 -117t-283 117t-117 283z" />
<glyph unicode="K" d="M100 0v1200h200v-500h79l289 500h232l-346 -600l346 -600h-232l-289 500h-79v-500h-200z" />
<glyph unicode="L" horiz-adv-x="900" d="M100 0v1200h200v-1000h500v-200h-700z" />
<glyph unicode="M" horiz-adv-x="1200" d="M100 0v1200h221l279 -576l279 576h221v-1200h-200v783l-300 -620l-300 620v-783h-200z" />
<glyph unicode="N" d="M100 0v1200h221l379 -783v783h200v-1200h-221l-379 783v-783h-200z" />
<glyph unicode="O" d="M100 400v400q0 166 117 283t283 117t283 -117t117 -283v-400q0 -166 -117 -283t-283 -117t-283 117t-117 283zM300 400q0 -83 58.5 -141.5t141.5 -58.5t141.5 58.5t58.5 141.5v400q0 83 -58.5 141.5t-141.5 58.5t-141.5 -58.5t-58.5 -141.5v-400z" />
<glyph unicode="P" d="M100 0v1200h450q350 0 350 -350t-350 -350h-150l-100 200v-700h-200zM300 700h250q150 0 150 150t-150 150h-250v-300z" />
<glyph unicode="Q" d="M100 400v400q0 166 117 283t283 117t283 -117t117 -283v-400q0 -166 -117 -283l-3 -3l124 -214h-232l-65 113q-51 -13 -107 -13q-166 0 -283 117t-117 283zM300 400q0 -83 59 -141q58 -59 140 -59l-115 200h232l58 -100q26 44 26 100v400q0 83 -58.5 141.5t-141.5 58.5 t-141.5 -58.5t-58.5 -141.5v-400z" />
<glyph unicode="R" d="M100 0v1200h450q350 0 350 -350q0 -319 -290 -347l290 -503h-232l-368 638v-638h-200zM300 700h250q150 0 150 150t-150 150h-250v-300z" />
<glyph unicode="S" d="M100 350l200 100v-100q0 -83 58.5 -116.5t141.5 -33.5t141.5 33.5t58.5 116.5q0 110 -300 180t-300 320q0 166 117 258t283 92t283 -92t117 -258l-200 -100v100q0 83 -58.5 116.5t-141.5 33.5t-141.5 -33.5t-58.5 -116.5q0 -110 300 -180t300 -320q0 -166 -117 -258 t-283 -92t-283 92t-117 258z" />
<glyph unicode="T" horiz-adv-x="900" d="M0 1200h800v-200h-250v-1000h-200v1000h-250z" />
<glyph unicode="U" d="M100 400v800h200v-800q0 -83 58.5 -141.5t141.5 -58.5t141.5 58.5t58.5 141.5v800h200v-800q0 -166 -117 -283t-283 -117t-283 117t-117 283z" />
<glyph unicode="V" d="M10 1200h210l280 -861l280 861h210l-390 -1200h-200z" />
<glyph unicode="W" horiz-adv-x="1400" d="M10 1200h210l280 -861l95 292l-185 569h210l80 -246l80 246h210l-185 -569l95 -292l280 861h210l-390 -1200h-200l-100 308l-100 -308h-200z" />
<glyph unicode="X" horiz-adv-x="900" d="M6 0l330 600l-330 600h228l216 -393l216 393h228l-330 -600l330 -600h-228l-216 393l-216 -393h-228z" />
<glyph unicode="Y" horiz-adv-x="900" d="M7 1200h228l216 -393l216 393h228l-344 -625v-575h-200v575z" />
<glyph unicode="Z" horiz-adv-x="900" d="M54 0l476 1000h-430v200h746l-476 -1000h430v-200h-746z" />
<glyph unicode="[" horiz-adv-x="600" d="M100 -100v1400h400v-200h-200v-1000h200v-200h-400z" />
<glyph unicode="\" horiz-adv-x="900" d="M7 1200h228l660 -1200h-228z" />
<glyph unicode="]" horiz-adv-x="600" d="M100 -100v200h200v1000h-200v200h400v-1400h-400z" />
<glyph unicode="^" horiz-adv-x="400" d="M100 800v400h200v-400h-200z" />
<glyph unicode="_" horiz-adv-x="900" d="M100 0v200h700v-200h-700z" />
<glyph unicode="`" horiz-adv-x="400" d="M100 800v400h200v-400h-200z" />
<glyph unicode="a" d="M10 0l390 1200h200l457 -1400h-210l-131 400h-316l-70 139l-110 -339h-210zM350 400h301l-151 461z" />
<glyph unicode="b" d="M100 -200v1400h450q350 0 350 -350q0 -163 -76 -250q76 -87 76 -250q0 -350 -350 -350h-150l-100 200v-500zM300 200h250q150 0 150 150t-150 150h-150l-100 200v-500zM300 700h250q150 0 150 150t-150 150h-250v-300z" />
<glyph unicode="c" d="M100 400v400q0 166 117 283t283 117t283 -117t117 -283l-200 -100v100q0 83 -58.5 141.5t-141.5 58.5t-141.5 -58.5t-58.5 -141.5v-400q0 -83 58.5 -141.5t141.5 -58.5t141.5 58.5t58.5 141.5v100l200 -100q0 -166 -117 -283t-283 -117t-283 117t-117 283z" />
<glyph unicode="d" d="M100 -200v1400h400q166 0 283 -117t117 -283v-400q0 -166 -117 -283t-283 -117h-100l100 200q83 0 141.5 58.5t58.5 141.5v400q0 83 -58.5 141.5t-141.5 58.5h-200v-1300z" />
<glyph unicode="e" horiz-adv-x="900" d="M100 0v1200h700v-200h-500v-800h500l100 -200h-800zM300 700h500v-200h-400z" />
<glyph unicode="f" horiz-adv-x="900" d="M100 -200v1400h700v-200h-500v-1300zM300 700h500v-200h-400z" />
<glyph unicode="g" d="M100 400v400q0 166 117 283t283 117t283 -92t117 -258h-200q0 83 -58.5 116.5t-141.5 33.5t-141.5 -58.5t-58.5 -141.5v-400q0 -83 58.5 -141.5t141.5 -58.5t141.5 58.5t58.5 141.5v100h-150l-100 200h450v-300q0 -166 -117 -283t-283 -117t-283 117t-117 283z" />
<glyph unicode="h" d="M100 0v1200h200v-1200h-200zM300 700h400v500h200v-1400l-200 -100v800h-300z" />
<glyph unicode="i" horiz-adv-x="400" d="M100 -200v1400h200v-1500z" />
<glyph unicode="j" d="M100 400l200 100v-100q0 -83 58.5 -141.5t141.5 -58.5t141.5 58.5t58.5 141.5v1100l200 -100v-1000q0 -166 -117 -283t-283 -117t-283 117t-117 283z" />
<glyph unicode="k" d="M100 -200v1400h200v-500h79l289 500h232l-346 -600l346 -600h-232l-289 500h-79v-800z" />
<glyph unicode="l" horiz-adv-x="900" d="M100 0v1400l200 100v-1300h500v-200h-700z" />
<glyph unicode="m" horiz-adv-x="1200" d="M100 0v1200h221l279 -576l279 576h221v-1400l-200 -100v1083l-300 -620l-300 620v-783h-200z" />
<glyph unicode="n" d="M100 -200v1400h221l379 -783v783h200v-1200h-221l-379 783v-1083z" />
<glyph unicode="o" d="M100 400v400q0 166 117 283t283 117t283 -117t117 -283v-400q0 -166 -117 -283t-283 -117t-283 117t-117 283zM300 400q0 -83 58.5 -141.5t141.5 -58.5t141.5 58.5t58.5 141.5v400q0 83 -58.5 141.5t-141.5 58.5t-141.5 -58.5t-58.5 -141.5v-400z" />
<glyph unicode="p" d="M100 -200v1400h450q350 0 350 -350t-350 -350h-150l-100 200v-1000zM300 700h250q150 0 150 150t-150 150h-250v-300z" />
<glyph unicode="q" d="M100 400v400q0 166 117 283t283 117t283 -117t117 -283v-400q0 -166 -117 -283l-2 -2l239 -415h-232l-181 313q-51 -13 -107 -13q-166 0 -283 117t-117 283zM300 400q0 -83 59 -141q58 -59 140 -59l-115 200h232l58 -100q26 44 26 100v400q0 83 -58.5 141.5t-141.5 58.5 t-141.5 -58.5t-58.5 -141.5v-400z" />
<glyph unicode="r" d="M100 0v1200h450q350 0 350 -350q0 -318 -289 -347l409 -703h-232l-488 838v-638h-200zM300 700h250q150 0 150 150t-150 150h-250v-300z" />
<glyph unicode="s" d="M100 350l200 100v-100q0 -83 58.5 -116.5t141.5 -33.5t141.5 33.5t58.5 116.5q0 110 -300 180t-300 320q0 166 117 258t283 92t283 -92t117 -258l-200 -100v100q0 83 -58.5 116.5t-141.5 33.5t-141.5 -33.5t-58.5 -116.5q0 -110 300 -180t300 -320q0 -166 -117 -258 t-283 -92t-283 92t-117 258z" />
<glyph unicode="t" horiz-adv-x="900" d="M0 1200h800v-200h-250v-1300l-200 100v1200h-250z" />
<glyph unicode="u" d="M100 400v800h200v-800q0 -83 58.5 -141.5t141.5 -58.5t141.5 58.5t58.5 141.5v1100l200 -100v-1000q0 -166 -117 -283t-283 -117t-283 117t-117 283z" />
<glyph unicode="v" d="M10 1200h210l280 -861l347 1061h210l-457 -1400h-200z" />
<glyph unicode="w" horiz-adv-x="1400" d="M10 1200h210l280 -861l94 291l-251 770h210l146 -448l81 248h210l-185 -570l95 -291l280 861h210l-390 -1200h-200l-100 307l-100 -307h-200z" />
<glyph unicode="x" horiz-adv-x="900" d="M7 0l329 598l-329 602h228l215 -394l217 394h228l-331 -602l437 -798h-228l-323 591l-215 -391h-228z" />
<glyph unicode="y" horiz-adv-x="900" d="M7 1200h228l216 -393l216 393h228l-344 -625v-775l-200 -100v875z" />
<glyph unicode="z" horiz-adv-x="900" d="M0 1000l100 200h746l-476 -1000h530l-100 -200h-746l476 1000h-530z" />
<glyph unicode="{" horiz-adv-x="800" d="M100 500v200q83 0 141.5 58.5t58.5 141.5q0 166 117 283t283 117v-200q-83 0 -141.5 -58.5t-58.5 -141.5q0 -166 -117 -283q-9 -9 -18 -17q9 -8 18 -17q117 -117 117 -283q0 -83 58.5 -141.5t141.5 -58.5v-200q-166 0 -283 117t-117 283q0 83 -58.5 141.5t-141.5 58.5z " />
<glyph unicode="|" horiz-adv-x="400" d="M100 0v1200h200v-1200h-200z" />
<glyph unicode="}" horiz-adv-x="800" d="M100 -100v200q83 0 141.5 58.5t58.5 141.5q0 166 117 283q9 9 18 17q-9 8 -18 17q-117 117 -117 283q0 83 -58.5 141.5t-141.5 58.5v200q166 0 283 -117t117 -283q0 -83 58.5 -141.5t141.5 -58.5v-200q-83 0 -141.5 -58.5t-58.5 -141.5q0 -166 -117 -283t-283 -117z" />
<glyph unicode="~" horiz-adv-x="800" d="M50 700h650v-200h-550z" />
<glyph unicode="&#xad;" horiz-adv-x="800" d="M50 700h650v-200h-550z" />
<glyph unicode="&#x2000;" horiz-adv-x="750" />
<glyph unicode="&#x2001;" horiz-adv-x="1500" />
<glyph unicode="&#x2002;" horiz-adv-x="750" />
<glyph unicode="&#x2003;" horiz-adv-x="1500" />
<glyph unicode="&#x2004;" horiz-adv-x="500" />
<glyph unicode="&#x2005;" horiz-adv-x="375" />
<glyph unicode="&#x2006;" horiz-adv-x="250" />
<glyph unicode="&#x2007;" horiz-adv-x="250" />
<glyph unicode="&#x2008;" horiz-adv-x="187" />
<glyph unicode="&#x2009;" horiz-adv-x="300" />
<glyph unicode="&#x200a;" horiz-adv-x="83" />
<glyph unicode="&#x2010;" horiz-adv-x="800" d="M50 700h650v-200h-550z" />
<glyph unicode="&#x2011;" horiz-adv-x="800" d="M50 700h650v-200h-550z" />
<glyph unicode="&#x2012;" horiz-adv-x="800" d="M50 700h650v-200h-550z" />
<glyph unicode="&#x2013;" horiz-adv-x="1174" d="M50 700h1024v-200h-866z" />
<glyph unicode="&#x2014;" horiz-adv-x="2198" d="M50 700h2048v-200h-1733z" />
<glyph unicode="&#x202f;" horiz-adv-x="300" />
<glyph unicode="&#x205f;" horiz-adv-x="375" />
<glyph unicode="&#x25fc;" horiz-adv-x="1200" d="M0 0v1200h1200v-1200h-1200z" />
</font>
</defs>
</svg>
